HIERARCHY
ROOT root
{
  OFFSET -63.9245 92.6846 28.11
  CHANNELS 6 Xposition Yposition Zposition Zrotation Xrotation Yrotation
  JOINT lfemur
  {
    OFFSET 6.18079 -8.58223 4.6309
    CHANNELS 6 Xposition Yposition Zposition Zrotation Xrotation Yrotation
    JOINT ltibia
    {
      OFFSET -1.0381e-005 -39.2652 0
      CHANNELS 6 Xposition Yposition Zposition Zrotation Xrotation Yrotation
      JOINT lfoot
      {
        OFFSET -0.00334357 -31.3814 0
        CHANNELS 6 Xposition Yposition Zposition Zrotation Xrotation Yrotation
        End ltoes
        {
          OFFSET 0 0 0
        }
      }
    }
  }
}
MOTION
Frames:	53
Frame Time:	0.00833333
-63.9245 92.6846 28.11 -9.42451 -2.56131 93.5551 6.18079 -8.58223 4.6309 7.064 -17.5427 15.4604 -1.0381e-005 -39.2652 0 -0 28.0666 0 -0.00334357 -31.3814 0 -126.724 -70.0658 -125.043 
-63.9205 92.6846 28.11 -9.45926 -2.52934 93.5198 6.18079 -8.58223 4.6309 7.02185 -17.5267 15.3737 -1.0381e-005 -39.2652 0 -0 28.0375 0 -0.00334357 -31.3814 0 -126.83 -70.1608 -125.163 
-63.9104 92.6846 28.11 -9.46534 -2.52305 93.4805 6.18079 -8.58223 4.6309 6.97716 -17.5093 15.2795 -1.0381e-005 -39.2652 0 -0 28.0064 0 -0.00334357 -31.3814 0 -126.94 -70.2627 -125.289 
-63.907 92.6846 28.11 -9.47632 -2.51082 93.4527 6.18079 -8.58223 4.6309 6.93772 -17.4945 15.2004 -1.0381e-005 -39.2652 0 -0 27.9792 0 -0.00334357 -31.3814 0 -127.044 -70.3507 -125.405 
-63.9194 92.6846 28.11 -9.4573 -2.47107 93.4623 6.18079 -8.58223 4.6309 6.91127 -17.4861 15.159 -1.0381e-005 -39.2652 0 -0 27.9617 0 -0.00334357 -31.3814 0 -127.129 -70.4044 -125.498 
-63.9137 92.6846 28.11 -9.44801 -2.45904 93.4467 6.18079 -8.58223 4.6309 6.90356 -17.489 15.1759 -1.0381e-005 -39.2652 0 -0 27.9585 0 -0.00334357 -31.3814 0 -127.185 -70.4062 -125.554 
-63.9058 92.6846 28.11 -9.45917 -2.46382 93.4319 6.18079 -8.58223 4.6309 6.90921 -17.4999 15.234 -1.0381e-005 -39.2652 0 -0 27.9655 0 -0.00334357 -31.3814 0 -127.221 -70.3711 -125.583 
-63.9002 92.6778 28.11 -9.48821 -2.44992 93.4032 6.18079 -8.58223 4.6309 6.91926 -17.5105 15.3002 -1.0381e-005 -39.2652 0 -0 27.9753 0 -0.00334357 -31.3814 0 -127.25 -70.3276 -125.604 
-63.8838 92.6705 28.11 -9.51374 -2.45765 93.3675 6.18079 -8.58223 4.6309 6.92467 -17.5123 15.3411 -1.0381e-005 -39.2652 0 -0 27.9802 0 -0.00334357 -31.3814 0 -127.287 -70.3039 -125.636 
-63.8912 92.6603 28.11 -9.55022 -2.45425 93.3499 6.18079 -8.58223 4.6309 6.92365 -17.5002 15.3455 -1.0381e-005 -39.2652 0 -0 27.9781 0 -0.00334357 -31.3814 0 -127.341 -70.3096 -125.69 
-63.8872 92.6648 28.11 -9.54383 -2.44548 93.3337 6.18079 -8.58223 4.6309 6.9208 -17.4796 15.3321 -1.0381e-005 -39.2652 0 -0 27.973 0 -0.00334357 -31.3814 0 -127.403 -70.3288 -125.754 
-63.8765 92.6716 28.11 -9.54332 -2.45062 93.3037 6.18079 -8.58223 4.6309 6.91668 -17.4583 15.312 -1.0381e-005 -39.2652 0 -0 27.967 0 -0.00334357 -31.3814 0 -127.459 -70.3521 -125.814 
-63.8641 92.6784 28.11 -9.50546 -2.4484 93.2995 6.18079 -8.58223 4.6309 6.91185 -17.4443 15.2963 -1.0381e-005 -39.2652 0 -0 27.9619 0 -0.00334357 -31.3814 0 -127.499 -70.3702 -125.856 
-63.8641 92.6795 28.11 -9.49371 -2.44007 93.2993 6.18079 -8.58223 4.6309 6.90461 -17.4426 15.2875 -1.0381e-005 -39.2652 0 -0 27.9565 0 -0.00334357 -31.3814 0 -127.505 -70.3821 -125.864 
-63.8635 92.6767 28.11 -9.48693 -2.44003 93.2895 6.18079 -8.58223 4.6309 6.89527 -17.448 15.2798 -1.0381e-005 -39.2652 0 -0 27.9504 0 -0.00334357 -31.3814 0 -127.489 -70.3924 -125.85 
-63.8629 92.666 28.11 -9.49869 -2.44191 93.2978 6.18079 -8.58223 4.6309 6.88739 -17.4529 15.2721 -1.0381e-005 -39.2652 0 -0 27.9467 0 -0.00334357 -31.3814 0 -127.478 -70.3998 -125.84 
-63.8622 92.6603 28.11 -9.52509 -2.43416 93.2899 6.18079 -8.58223 4.6309 6.88451 -17.4499 15.2632 -1.0381e-005 -39.2652 0 -0 27.9485 0 -0.00334357 -31.3814 0 -127.499 -70.4029 -125.861 
-63.8612 92.6558 28.11 -9.53949 -2.44627 93.3015 6.18079 -8.58223 4.6309 6.88917 -17.4318 15.2538 -1.0381e-005 -39.2652 0 -0 27.959 0 -0.00334357 -31.3814 0 -127.578 -70.3988 -125.938 
-63.8601 92.6547 28.11 -9.5238 -2.43943 93.2958 6.18079 -8.58223 4.6309 6.89895 -17.4045 15.2443 -1.0381e-005 -39.2652 0 -0 27.9756 0 -0.00334357 -31.3814 0 -127.694 -70.3891 -126.05 
-63.8591 92.6592 28.11 -9.47166 -2.46709 93.3121 6.18079 -8.58223 4.6309 6.91001 -17.3793 15.2326 -1.0381e-005 -39.2652 0 -0 27.9933 0 -0.00334357 -31.3814 0 -127.805 -70.3792 -126.158 
-63.8579 92.6694 28.1057 -9.43733 -2.47861 93.3121 6.18079 -8.58223 4.6309 6.9185 -17.3677 15.2172 -1.0381e-005 -39.2652 0 -0 28.0069 0 -0.00334357 -31.3814 0 -127.869 -70.3746 -126.22 
-63.8565 92.6699 28.1023 -9.42827 -2.48434 93.3527 6.18079 -8.58223 4.6309 6.92289 -17.3787 15.191 -1.0381e-005 -39.2652 0 -0 28.0146 0 -0.00334357 -31.3814 0 -127.868 -70.3829 -126.221 
-63.8548 92.662 28.1014 -9.43823 -2.49736 93.3838 6.18079 -8.58223 4.6309 6.92537 -17.4043 15.1572 -1.0381e-005 -39.2652 0 -0 28.0193 0 -0.00334357 -31.3814 0 -127.826 -70.3993 -126.182 
-63.8528 92.6586 28.1013 -9.47263 -2.5163 93.3857 6.18079 -8.58223 4.6309 6.92769 -17.4303 15.1289 -1.0381e-005 -39.2652 0 -0 28.0228 0 -0.00334357 -31.3814 0 -127.767 -70.4102 -126.126 
-63.8454 92.6502 28.1007 -9.48289 -2.52115 93.4122 6.18079 -8.58223 4.6309 6.93162 -17.4429 15.1191 -1.0381e-005 -39.2652 0 -0 28.0267 0 -0.00334357 -31.3814 0 -127.712 -70.4022 -126.071 
-63.8387 92.6524 28.0967 -9.4821 -2.53865 93.4243 6.18079 -8.58223 4.6309 6.93865 -17.4327 15.1397 -1.0381e-005 -39.2652 0 -0 28.0314 0 -0.00334357 -31.3814 0 -127.666 -70.3643 -126.019 
-63.8319 92.6592 28.0916 -9.44552 -2.5333 93.4582 6.18079 -8.58223 4.6309 6.94747 -17.4089 15.1809 -1.0381e-005 -39.2652 0 -0 28.0361 0 -0.00334357 -31.3814 0 -127.618 -70.3063 -125.962 
-63.8296 92.662 28.0861 -9.42558 -2.54411 93.4856 6.18079 -8.58223 4.6309 6.95575 -17.3858 15.2234 -1.0381e-005 -39.2652 0 -0 28.0407 0 -0.00334357 -31.3814 0 -127.568 -70.2454 -125.903 
-63.82 92.6665 28.0822 -9.41504 -2.54261 93.5117 6.18079 -8.58223 4.6309 6.96121 -17.3772 15.2478 -1.0381e-005 -39.2652 0 -0 28.0451 0 -0.00334357 -31.3814 0 -127.517 -70.1991 -125.845 
-63.8186 92.6626 28.0807 -9.43872 -2.54413 93.5686 6.18079 -8.58223 4.6309 6.96133 -17.3898 15.2448 -1.0381e-005 -39.2652 0 -0 28.0489 0 -0.00334357 -31.3814 0 -127.463 -70.175 -125.788 
-63.8186 92.6423 28.0797 -9.46926 -2.54235 93.5923 6.18079 -8.58223 4.6309 6.95796 -17.4152 15.226 -1.0381e-005 -39.2652 0 -0 28.0521 0 -0.00334357 -31.3814 0 -127.406 -70.1629 -125.729 
-63.8183 92.6541 28.0786 -9.47662 -2.57822 93.6152 6.18079 -8.58223 4.6309 6.95544 -17.4448 15.2037 -1.0381e-005 -39.2652 0 -0 28.0561 0 -0.00334357 -31.3814 0 -127.351 -70.1531 -125.673 
-63.8161 92.6558 28.0775 -9.47079 -2.5704 93.6627 6.18079 -8.58223 4.6309 6.95812 -17.4701 15.1904 -1.0381e-005 -39.2652 0 -0 28.0617 0 -0.00334357 -31.3814 0 -127.302 -70.1362 -125.622 
-63.8059 92.6558 28.0725 -9.47251 -2.60212 93.6747 6.18079 -8.58223 4.6309 6.9696 -17.4902 15.1895 -1.0381e-005 -39.2652 0 -0 28.0701 0 -0.00334357 -31.3814 0 -127.261 -70.1074 -125.577 
-63.8025 92.6549 28.0675 -9.47081 -2.59062 93.7219 6.18079 -8.58223 4.6309 6.98676 -17.5091 15.1945 -1.0381e-005 -39.2652 0 -0 28.0804 0 -0.00334357 -31.3814 0 -127.225 -70.0726 -125.536 
-63.8017 92.6547 28.0649 -9.48604 -2.62936 93.7444 6.18079 -8.58223 4.6309 7.00388 -17.526 15.2022 -1.0381e-005 -39.2652 0 -0 28.091 0 -0.00334357 -31.3814 0 -127.193 -70.0379 -125.499 
-63.8008 92.6586 28.0628 -9.50784 -2.63886 93.7829 6.18079 -8.58223 4.6309 7.01527 -17.5398 15.2095 -1.0381e-005 -39.2652 0 -0 28.1001 0 -0.00334357 -31.3814 0 -127.166 -70.0093 -125.467 
-63.7975 92.6423 28.0598 -9.53278 -2.6613 93.7968 6.18079 -8.58223 4.6309 7.01845 -17.548 15.2152 -1.0381e-005 -39.2652 0 -0 28.1081 0 -0.00334357 -31.3814 0 -127.15 -69.9903 -125.448 
-63.7845 92.6558 28.0521 -9.54314 -2.6439 93.8058 6.18079 -8.58223 4.6309 7.01677 -17.552 15.2211 -1.0381e-005 -39.2652 0 -0 28.1156 0 -0.00334357 -31.3814 0 -127.142 -69.9771 -125.438 
-63.7845 92.6507 28.0463 -9.53567 -2.6439 93.826 6.18079 -8.58223 4.6309 7.01328 -17.5563 15.2284 -1.0381e-005 -39.2652 0 -0 28.1215 0 -0.00334357 -31.3814 0 -127.13 -69.9647 -125.424 
-63.7777 92.662 28.0431 -9.52365 -2.65511 93.8545 6.18079 -8.58223 4.6309 7.01104 -17.5656 15.2384 -1.0381e-005 -39.2652 0 -0 28.1244 0 -0.00334357 -31.3814 0 -127.1 -69.9478 -125.392 
-63.7698 92.6665 28.0387 -9.51102 -2.69175 93.8705 6.18079 -8.58223 4.6309 7.01 -17.5849 15.2549 -1.0381e-005 -39.2652 0 -0 28.122 0 -0.00334357 -31.3814 0 -127.033 -69.9233 -125.322 
-63.7636 92.6694 28.0365 -9.56229 -2.67146 93.8889 6.18079 -8.58223 4.6309 7.00882 -17.6106 15.276 -1.0381e-005 -39.2652 0 -0 28.1157 0 -0.00334357 -31.3814 0 -126.941 -69.8944 -125.227 
-63.7591 92.653 28.0347 -9.59281 -2.67631 93.9027 6.18079 -8.58223 4.6309 7.00865 -17.6338 15.2946 -1.0381e-005 -39.2652 0 -0 28.1098 0 -0.00334357 -31.3814 0 -126.86 -69.866 -125.142 
-63.7591 92.6445 28.0325 -9.6095 -2.67147 93.9226 6.18079 -8.58223 4.6309 7.01058 -17.6459 15.3037 -1.0381e-005 -39.2652 0 -0 28.1089 0 -0.00334357 -31.3814 0 -126.822 -69.843 -125.101 
-63.7489 92.6615 28.0275 -9.61193 -2.67566 93.9404 6.18079 -8.58223 4.6309 7.01541 -17.6392 15.2955 -1.0381e-005 -39.2652 0 -0 28.1156 0 -0.00334357 -31.3814 0 -126.858 -69.8286 -125.134 
-63.7382 92.6637 28.0205 -9.57916 -2.66663 93.9447 6.18079 -8.58223 4.6309 7.0224 -17.6201 15.2757 -1.0381e-005 -39.2652 0 -0 28.127 0 -0.00334357 -31.3814 0 -126.942 -69.8195 -125.214 
-63.7263 92.6652 28.015 -9.5703 -2.68932 93.9472 6.18079 -8.58223 4.6309 7.03028 -17.6009 15.2576 -1.0381e-005 -39.2652 0 -0 28.1394 0 -0.00334357 -31.3814 0 -127.027 -69.8109 -125.296 
-63.7252 92.6671 28.0141 -9.55616 -2.70815 93.9679 6.18079 -8.58223 4.6309 7.03776 -17.5939 15.2546 -1.0381e-005 -39.2652 0 -0 28.149 0 -0.00334357 -31.3814 0 -127.067 -69.7982 -125.333 
-63.7179 92.6722 28.0118 -9.59096 -2.71128 93.9721 6.18079 -8.58223 4.6309 7.04606 -17.6063 15.2768 -1.0381e-005 -39.2652 0 -0 28.154 0 -0.00334357 -31.3814 0 -127.029 -69.7778 -125.293 
-63.7162 92.6507 28.0094 -9.60457 -2.74513 93.9809 6.18079 -8.58223 4.6309 7.05538 -17.6302 15.315 -1.0381e-005 -39.2652 0 -0 28.1567 0 -0.00334357 -31.3814 0 -126.947 -69.7532 -125.208 
-63.7083 92.6445 28.0069 -9.64387 -2.7122 93.9745 6.18079 -8.58223 4.6309 7.06284 -17.6555 15.3533 -1.0381e-005 -39.2652 0 -0 28.1594 0 -0.00334357 -31.3814 0 -126.866 -69.7294 -125.125 
-63.6981 92.6569 28.0044 -9.63778 -2.72378 93.9619 6.18079 -8.58223 4.6309 7.06552 -17.672 15.3756 -1.0381e-005 -39.2652 0 -0 28.1644 0 -0.00334357 -31.3814 0 -126.835 -69.7121 -125.091 
